<?xml version="1.0" encoding="UTF-8" standalone="no"?>
<svg xmlns="http://www.w3.org/2000/svg" width="200" height="63" viewBox="0 0 3854 1209" version="1.1">
  <path fill="currentColor" stroke="none" d="M 3322.00,26.43 C 3346.92,23.35 3372.59,30.77 3391.00,48.09 3420.70,76.04 3425.94,126.19 3401.10,159.00 3392.21,170.75 3382.03,177.84 3369.00,184.24 3356.29,190.49 3343.00,192.16 3329.00,192.00 3319.03,191.88 3306.92,188.63 3298.00,184.24 3287.79,179.23 3278.93,174.64 3271.17,166.00 3258.79,152.19 3249.65,126.58 3250.02,108.00 3250.37,89.91 3259.48,65.65 3271.30,52.00 3283.63,37.77 3303.75,29.42 3322.00,26.43 Z M 4.00,119.00 C 4.00,119.00 117.00,119.00 117.00,119.00 120.67,119.01 125.54,118.64 128.30,121.51 130.73,124.03 134.06,135.17 135.33,139.00 135.33,139.00 147.98,179.00 147.98,179.00 147.98,179.00 157.58,211.00 157.58,211.00 157.58,211.00 162.43,230.00 162.43,230.00 162.43,230.00 185.72,307.00 185.72,307.00 185.72,307.00 201.37,362.00 201.37,362.00 203.08,368.81 206.46,380.52 207.00,387.00 210.74,382.61 212.51,372.77 214.14,367.00 214.14,367.00 225.71,327.00 225.71,327.00 225.71,327.00 237.58,286.00 237.58,286.00 237.58,286.00 242.02,269.00 242.02,269.00 242.02,269.00 268.86,183.00 268.86,183.00 268.86,183.00 284.02,135.00 284.02,135.00 284.99,131.87 287.48,121.66 289.70,119.99 291.37,118.74 294.96,119.00 297.00,119.00 297.00,119.00 414.00,119.00 414.00,119.00 414.00,119.00 414.00,408.00 414.00,408.00 414.00,408.00 414.00,473.00 414.00,473.00 414.00,477.50 415.22,491.19 411.52,493.83 409.52,495.24 405.40,495.00 403.00,495.00 403.00,495.00 331.00,495.00 331.00,495.00 331.00,495.00 331.00,327.00 331.00,327.00 331.00,327.00 331.00,243.00 331.00,243.00 331.00,243.00 332.00,228.00 332.00,228.00 332.00,228.00 332.00,203.00 332.00,203.00 332.00,203.00 333.00,180.00 333.00,180.00 333.00,180.00 331.00,180.00 331.00,180.00 331.00,180.00 323.87,210.00 323.87,210.00 323.87,210.00 317.89,233.00 317.89,233.00 317.89,233.00 316.25,242.00 316.25,242.00 316.25,242.00 308.42,269.00 308.42,269.00 308.42,269.00 278.72,369.00 278.72,369.00 278.72,369.00 262.33,423.00 262.33,423.00 262.33,423.00 246.02,477.00 246.02,477.00 242.85,487.31 243.46,494.84 232.00,495.00 232.00,495.00 175.00,495.00 175.00,495.00 172.34,495.00 168.54,495.22 166.22,493.83 162.03,491.30 159.98,479.74 159.00,475.00 159.00,475.00 145.00,421.00 145.00,421.00 145.00,421.00 97.42,255.00 97.42,255.00 97.42,255.00 82.71,202.00 82.71,202.00 82.71,202.00 77.00,181.00 77.00,181.00 77.00,181.00 77.96,193.00 77.96,193.00 77.96,193.00 77.96,204.00 77.96,204.00 77.96,204.00 79.00,219.00 79.00,219.00 79.00,219.00 79.00,246.00 79.00,246.00 79.00,246.00 80.00,261.00 80.00,261.00 80.00,261.00 80.00,278.00 80.00,278.00 80.00,278.00 81.00,295.00 81.00,295.00 81.00,295.00 81.00,334.00 81.00,334.00 81.00,334.00 82.00,351.00 82.00,351.00 82.00,351.00 82.00,422.00 82.00,422.00 82.00,422.00 82.00,484.00 82.00,484.00 81.98,493.53 80.53,494.98 71.00,495.00 71.00,495.00 13.00,495.00 13.00,495.00 3.87,494.87 4.01,492.18 4.00,484.00 4.00,484.00 4.00,119.00 4.00,119.00 Z M 511.00,119.00 C 511.00,119.00 806.00,119.00 806.00,119.00 806.00,119.00 806.00,192.00 806.00,192.00 806.00,192.00 597.00,192.00 597.00,192.00 597.00,192.00 597.00,263.00 597.00,263.00 597.00,263.00 795.00,263.00 795.00,263.00 795.00,263.00 795.00,336.00 795.00,336.00 795.00,336.00 597.00,336.00 597.00,336.00 597.00,336.00 597.00,422.00 597.00,422.00 597.00,422.00 805.00,422.00 805.00,422.00 805.00,422.00 805.00,460.00 805.00,460.00 805.00,460.00 806.00,484.00 806.00,484.00 805.98,494.01 805.01,494.98 795.00,495.00 795.00,495.00 511.00,495.00 511.00,495.00 511.00,495.00 511.00,119.00 511.00,119.00 Z M 885.00,119.00 C 885.00,119.00 1036.00,119.00 1036.00,119.00 1067.45,119.00 1102.90,116.76 1133.00,126.67 1146.66,131.17 1163.28,139.60 1174.00,149.17 1210.35,181.63 1213.56,235.98 1193.22,278.00 1186.71,291.44 1175.69,300.31 1163.00,307.57 1157.43,310.76 1150.35,312.66 1146.00,317.00 1153.06,318.28 1160.21,322.58 1166.00,326.75 1194.72,347.41 1196.00,377.77 1196.00,410.00 1196.00,410.00 1196.00,447.00 1196.00,447.00 1196.00,447.00 1197.00,461.00 1197.00,461.00 1197.00,461.00 1197.00,486.00 1197.00,486.00 1196.96,488.36 1197.06,491.46 1195.26,493.26 1193.18,495.35 1188.76,495.00 1186.00,495.00 1186.00,495.00 1107.00,495.00 1107.00,495.00 1107.00,495.00 1107.00,400.00 1107.00,400.00 1106.86,388.05 1103.39,373.82 1094.91,365.04 1084.08,353.83 1064.07,350.02 1049.00,350.00 1049.00,350.00 970.00,350.00 970.00,350.00 970.00,350.00 970.00,495.00 970.00,495.00 970.00,495.00 885.00,495.00 885.00,495.00 885.00,495.00 885.00,119.00 885.00,119.00 Z M 1283.00,119.00 C 1283.00,119.00 1369.00,119.00 1369.00,119.00 1369.00,119.00 1369.00,282.00 1369.00,282.00 1369.00,282.00 1389.00,262.09 1389.00,262.09 1389.00,262.09 1411.00,241.96 1411.00,241.96 1411.00,241.96 1472.00,181.00 1472.00,181.00 1472.00,181.00 1494.00,160.00 1494.00,160.00 1494.00,160.00 1517.99,136.00 1517.99,136.00 1528.44,125.29 1529.57,119.03 1546.00,119.00 1546.00,119.00 1641.00,119.00 1641.00,119.00 1633.30,129.75 1609.49,150.78 1599.00,161.01 1599.00,161.01 1559.00,200.00 1559.00,200.00 1559.00,200.00 1524.00,234.91 1524.00,234.91 1524.00,234.91 1492.00,265.83 1492.00,265.83 1488.50,269.00 1479.53,276.24 1478.98,281.00 1478.48,285.29 1486.50,293.70 1489.25,297.00 1489.25,297.00 1521.80,337.00 1521.80,337.00 1521.80,337.00 1589.58,419.00 1589.58,419.00 1589.58,419.00 1608.42,443.00 1608.42,443.00 1608.42,443.00 1650.00,495.00 1650.00,495.00 1650.00,495.00 1553.00,495.00 1553.00,495.00 1549.92,495.00 1546.89,495.18 1544.00,493.91 1539.58,491.98 1536.53,487.67 1533.60,484.00 1533.60,484.00 1518.37,464.00 1518.37,464.00 1518.37,464.00 1445.21,372.00 1445.21,372.00 1445.21,372.00 1423.87,344.00 1423.87,344.00 1421.59,341.00 1417.13,334.69 1413.00,334.74 1410.66,334.77 1407.75,337.05 1406.00,338.47 1406.00,338.47 1391.00,352.00 1391.00,352.00 1385.84,356.71 1372.07,367.29 1369.89,373.00 1368.95,375.47 1369.01,378.39 1369.00,381.00 1369.00,381.00 1369.00,452.00 1369.00,452.00 1369.00,452.00 1369.00,485.00 1369.00,485.00 1368.99,487.57 1369.22,491.31 1367.26,493.26 1365.18,495.35 1360.76,495.00 1358.00,495.00 1358.00,495.00 1283.00,495.00 1283.00,495.00 1283.00,495.00 1283.00,119.00 1283.00,119.00 Z M 1683.00,119.00 C 1683.00,119.00 1768.00,119.00 1768.00,119.00 1768.00,119.00 1768.00,322.00 1768.00,322.00 1768.00,322.00 1769.00,337.00 1769.00,337.00 1769.28,360.95 1774.03,389.89 1791.09,407.99 1798.82,416.18 1812.28,423.83 1823.00,427.33 1828.96,429.27 1837.74,430.92 1844.00,431.00 1871.39,431.32 1893.94,429.17 1911.51,405.00 1914.47,400.94 1918.13,393.73 1919.94,389.00 1930.47,361.46 1929.00,316.84 1929.00,287.00 1929.00,287.00 1929.00,119.00 1929.00,119.00 1929.00,119.00 2015.00,119.00 2015.00,119.00 2015.00,119.00 2015.00,333.00 2015.00,333.00 2015.00,333.00 2014.00,347.00 2014.00,347.00 2014.00,347.00 2014.00,351.00 2014.00,351.00 2014.00,351.00 2013.09,361.00 2013.09,361.00 2010.77,392.76 1999.34,431.91 1977.83,456.00 1964.87,470.52 1946.45,483.72 1928.00,490.30 1928.00,490.30 1913.00,494.42 1913.00,494.42 1896.61,498.98 1881.03,501.80 1864.00,502.00 1864.00,502.00 1849.00,502.99 1849.00,502.99 1849.00,502.99 1840.00,502.04 1840.00,502.04 1840.00,502.04 1828.00,502.04 1828.00,502.04 1828.00,502.04 1805.00,499.08 1805.00,499.08 1773.33,493.84 1748.62,484.56 1725.17,461.72 1698.15,435.40 1686.59,397.66 1683.91,361.00 1683.91,361.00 1683.00,349.00 1683.00,349.00 1683.00,349.00 1683.00,119.00 1683.00,119.00 Z M 2108.00,119.00 C 2108.00,119.00 2254.00,119.00 2254.00,119.00 2284.62,119.00 2319.40,117.06 2349.00,124.47 2380.99,132.48 2411.06,155.64 2422.77,187.00 2427.75,200.32 2429.02,213.91 2429.00,228.00 2428.95,257.21 2418.31,281.70 2396.00,300.70 2386.35,308.92 2375.22,311.79 2370.00,317.00 2375.46,318.03 2378.34,319.91 2383.00,322.81 2397.94,332.14 2408.11,345.39 2413.65,362.00 2420.30,381.98 2420.00,403.22 2420.00,424.00 2420.00,424.00 2420.00,495.00 2420.00,495.00 2420.00,495.00 2352.00,495.00 2352.00,495.00 2347.41,495.00 2332.74,496.30 2330.17,492.57 2328.76,490.52 2329.00,486.45 2329.00,484.00 2329.00,484.00 2329.00,398.00 2329.00,398.00 2328.94,392.92 2327.95,386.89 2326.57,382.00 2316.26,345.46 2272.64,350.00 2243.00,350.00 2243.00,350.00 2221.00,350.00 2221.00,350.00 2221.00,350.00 2193.00,350.00 2193.00,350.00 2193.00,350.00 2193.00,495.00 2193.00,495.00 2193.00,495.00 2108.00,495.00 2108.00,495.00 2108.00,495.00 2108.00,119.00 2108.00,119.00 Z M 970.00,282.00 C 970.00,282.00 1061.00,282.00 1061.00,282.00 1072.42,281.86 1091.45,278.52 1101.00,272.24 1106.44,268.66 1110.08,264.86 1113.01,259.00 1120.57,243.88 1119.68,216.28 1108.48,203.09 1105.58,199.66 1101.94,197.32 1098.00,195.26 1080.42,186.10 1062.16,187.00 1043.00,187.00 1043.00,187.00 970.00,187.00 970.00,187.00 970.00,187.00 970.00,282.00 970.00,282.00 Z M 2193.00,282.00 C 2193.00,282.00 2268.00,282.00 2268.00,282.00 2284.78,282.00 2304.81,282.18 2320.00,274.22 2325.19,271.50 2329.93,267.80 2333.37,263.00 2346.32,244.93 2343.45,210.06 2324.00,197.10 2308.40,186.72 2288.94,187.00 2271.00,187.00 2271.00,187.00 2193.00,187.00 2193.00,187.00 2193.00,187.00 2193.00,282.00 2193.00,282.00 Z" />
</svg>
