<?xml version="1.0" encoding="UTF-8" standalone="no"?>
<svg
   xmlns:dc="http://purl.org/dc/elements/1.1/"
   xmlns:cc="http://creativecommons.org/ns#"
   xmlns:rdf="http://www.w3.org/1999/02/22-rdf-syntax-ns#"
   xmlns:svg="http://www.w3.org/2000/svg"
   xmlns="http://www.w3.org/2000/svg"
   xmlns:sodipodi="http://sodipodi.sourceforge.net/DTD/sodipodi-0.dtd"
   xmlns:inkscape="http://www.inkscape.org/namespaces/inkscape"
   width="3.76367in"
   height="1.18066in"
   viewBox="0 0 3854 1209"
   version="1.1"
   id="svg75"
   sodipodi:docname="MBP_Schriftzug11.svg"
   inkscape:version="1.0.1 (3bc2e813f5, 2020-09-07)">
  <metadata
     id="metadata81">
    <rdf:RDF>
      <cc:Work
         rdf:about="">
        <dc:format>image/svg+xml</dc:format>
        <dc:type
           rdf:resource="http://purl.org/dc/dcmitype/StillImage" />
        <dc:title></dc:title>
      </cc:Work>
    </rdf:RDF>
  </metadata>
  <defs
     id="defs79" />
  <sodipodi:namedview
     pagecolor="#ffffff"
     bordercolor="#666666"
     borderopacity="1"
     objecttolerance="10"
     gridtolerance="10"
     guidetolerance="10"
     inkscape:pageopacity="0"
     inkscape:pageshadow="2"
     inkscape:window-width="2560"
     inkscape:window-height="1377"
     id="namedview77"
     showgrid="false"
     inkscape:zoom="6.5345129"
     inkscape:cx="46.437614"
     inkscape:cy="56.67168"
     inkscape:window-x="-8"
     inkscape:window-y="-8"
     inkscape:window-maximized="1"
     inkscape:current-layer="svg75" />
  <path
     id="Auswahl #1"
     fill="none"
     stroke="black"
     stroke-width="1"
     d="M 3322.00,26.43            C 3346.92,23.35 3372.59,30.77 3391.00,48.09              3420.70,76.04 3425.94,126.19 3401.10,159.00              3392.21,170.75 3382.03,177.84 3369.00,184.24              3356.29,190.49 3343.00,192.16 3329.00,192.00              3319.03,191.88 3306.92,188.63 3298.00,184.24              3287.79,179.23 3278.93,174.64 3271.17,166.00              3258.79,152.19 3249.65,126.58 3250.02,108.00              3250.37,89.91 3259.48,65.65 3271.30,52.00              3283.63,37.77 3303.75,29.42 3322.00,26.43 Z            M 4.00,119.00            C 4.00,119.00 117.00,119.00 117.00,119.00              120.67,119.01 125.54,118.64 128.30,121.51              130.73,124.03 134.06,135.17 135.33,139.00              135.33,139.00 147.98,179.00 147.98,179.00              147.98,179.00 157.58,211.00 157.58,211.00              157.58,211.00 162.43,230.00 162.43,230.00              162.43,230.00 185.72,307.00 185.72,307.00              185.72,307.00 201.37,362.00 201.37,362.00              203.08,368.81 206.46,380.52 207.00,387.00              210.74,382.61 212.51,372.77 214.14,367.00              214.14,367.00 225.71,327.00 225.71,327.00              225.71,327.00 237.58,286.00 237.58,286.00              237.58,286.00 242.02,269.00 242.02,269.00              242.02,269.00 268.86,183.00 268.86,183.00              268.86,183.00 284.02,135.00 284.02,135.00              284.99,131.87 287.48,121.66 289.70,119.99              291.37,118.74 294.96,119.00 297.00,119.00              297.00,119.00 414.00,119.00 414.00,119.00              414.00,119.00 414.00,408.00 414.00,408.00              414.00,408.00 414.00,473.00 414.00,473.00              414.00,477.50 415.22,491.19 411.52,493.83              409.52,495.24 405.40,495.00 403.00,495.00              403.00,495.00 331.00,495.00 331.00,495.00              331.00,495.00 331.00,327.00 331.00,327.00              331.00,327.00 331.00,243.00 331.00,243.00              331.00,243.00 332.00,228.00 332.00,228.00              332.00,228.00 332.00,203.00 332.00,203.00              332.00,203.00 333.00,180.00 333.00,180.00              333.00,180.00 331.00,180.00 331.00,180.00              331.00,180.00 323.87,210.00 323.87,210.00              323.87,210.00 317.89,233.00 317.89,233.00              317.89,233.00 316.25,242.00 316.25,242.00              316.25,242.00 308.42,269.00 308.42,269.00              308.42,269.00 278.72,369.00 278.72,369.00              278.72,369.00 262.33,423.00 262.33,423.00              262.33,423.00 246.02,477.00 246.02,477.00              242.85,487.31 243.46,494.84 232.00,495.00              232.00,495.00 175.00,495.00 175.00,495.00              172.34,495.00 168.54,495.22 166.22,493.83              162.03,491.30 159.98,479.74 159.00,475.00              159.00,475.00 145.00,421.00 145.00,421.00              145.00,421.00 97.42,255.00 97.42,255.00              97.42,255.00 82.71,202.00 82.71,202.00              82.71,202.00 77.00,181.00 77.00,181.00              77.00,181.00 77.96,193.00 77.96,193.00              77.96,193.00 77.96,204.00 77.96,204.00              77.96,204.00 79.00,219.00 79.00,219.00              79.00,219.00 79.00,246.00 79.00,246.00              79.00,246.00 80.00,261.00 80.00,261.00              80.00,261.00 80.00,278.00 80.00,278.00              80.00,278.00 81.00,295.00 81.00,295.00              81.00,295.00 81.00,334.00 81.00,334.00              81.00,334.00 82.00,351.00 82.00,351.00              82.00,351.00 82.00,422.00 82.00,422.00              82.00,422.00 82.00,484.00 82.00,484.00              81.98,493.53 80.53,494.98 71.00,495.00              71.00,495.00 13.00,495.00 13.00,495.00              3.87,494.87 4.01,492.18 4.00,484.00              4.00,484.00 4.00,119.00 4.00,119.00 Z            M 511.00,119.00            C 511.00,119.00 806.00,119.00 806.00,119.00              806.00,119.00 806.00,192.00 806.00,192.00              806.00,192.00 597.00,192.00 597.00,192.00              597.00,192.00 597.00,263.00 597.00,263.00              597.00,263.00 795.00,263.00 795.00,263.00              795.00,263.00 795.00,336.00 795.00,336.00              795.00,336.00 597.00,336.00 597.00,336.00              597.00,336.00 597.00,422.00 597.00,422.00              597.00,422.00 805.00,422.00 805.00,422.00              805.00,422.00 805.00,460.00 805.00,460.00              805.00,460.00 806.00,484.00 806.00,484.00              805.98,494.01 805.01,494.98 795.00,495.00              795.00,495.00 511.00,495.00 511.00,495.00              511.00,495.00 511.00,119.00 511.00,119.00 Z            M 885.00,119.00            C 885.00,119.00 1036.00,119.00 1036.00,119.00              1067.45,119.00 1102.90,116.76 1133.00,126.67              1146.66,131.17 1163.28,139.60 1174.00,149.17              1210.35,181.63 1213.56,235.98 1193.22,278.00              1186.71,291.44 1175.69,300.31 1163.00,307.57              1157.43,310.76 1150.35,312.66 1146.00,317.00              1153.06,318.28 1160.21,322.58 1166.00,326.75              1194.72,347.41 1196.00,377.77 1196.00,410.00              1196.00,410.00 1196.00,447.00 1196.00,447.00              1196.00,447.00 1197.00,461.00 1197.00,461.00              1197.00,461.00 1197.00,486.00 1197.00,486.00              1196.96,488.36 1197.06,491.46 1195.26,493.26              1193.18,495.35 1188.76,495.00 1186.00,495.00              1186.00,495.00 1107.00,495.00 1107.00,495.00              1107.00,495.00 1107.00,400.00 1107.00,400.00              1106.86,388.05 1103.39,373.82 1094.91,365.04              1084.08,353.83 1064.07,350.02 1049.00,350.00              1049.00,350.00 970.00,350.00 970.00,350.00              970.00,350.00 970.00,495.00 970.00,495.00              970.00,495.00 885.00,495.00 885.00,495.00              885.00,495.00 885.00,119.00 885.00,119.00 Z            M 1283.00,119.00            C 1283.00,119.00 1369.00,119.00 1369.00,119.00              1369.00,119.00 1369.00,282.00 1369.00,282.00              1369.00,282.00 1389.00,262.09 1389.00,262.09              1389.00,262.09 1411.00,241.96 1411.00,241.96              1411.00,241.96 1472.00,181.00 1472.00,181.00              1472.00,181.00 1494.00,160.00 1494.00,160.00              1494.00,160.00 1517.99,136.00 1517.99,136.00              1528.44,125.29 1529.57,119.03 1546.00,119.00              1546.00,119.00 1641.00,119.00 1641.00,119.00              1633.30,129.75 1609.49,150.78 1599.00,161.01              1599.00,161.01 1559.00,200.00 1559.00,200.00              1559.00,200.00 1524.00,234.91 1524.00,234.91              1524.00,234.91 1492.00,265.83 1492.00,265.83              1488.50,269.00 1479.53,276.24 1478.98,281.00              1478.48,285.29 1486.50,293.70 1489.25,297.00              1489.25,297.00 1521.80,337.00 1521.80,337.00              1521.80,337.00 1589.58,419.00 1589.58,419.00              1589.58,419.00 1608.42,443.00 1608.42,443.00              1608.42,443.00 1650.00,495.00 1650.00,495.00              1650.00,495.00 1553.00,495.00 1553.00,495.00              1549.92,495.00 1546.89,495.18 1544.00,493.91              1539.58,491.98 1536.53,487.67 1533.60,484.00              1533.60,484.00 1518.37,464.00 1518.37,464.00              1518.37,464.00 1445.21,372.00 1445.21,372.00              1445.21,372.00 1423.87,344.00 1423.87,344.00              1421.59,341.00 1417.13,334.69 1413.00,334.74              1410.66,334.77 1407.75,337.05 1406.00,338.47              1406.00,338.47 1391.00,352.00 1391.00,352.00              1385.84,356.71 1372.07,367.29 1369.89,373.00              1368.95,375.47 1369.01,378.39 1369.00,381.00              1369.00,381.00 1369.00,452.00 1369.00,452.00              1369.00,452.00 1369.00,485.00 1369.00,485.00              1368.99,487.57 1369.22,491.31 1367.26,493.26              1365.18,495.35 1360.76,495.00 1358.00,495.00              1358.00,495.00 1283.00,495.00 1283.00,495.00              1283.00,495.00 1283.00,119.00 1283.00,119.00 Z            M 1683.00,119.00            C 1683.00,119.00 1768.00,119.00 1768.00,119.00              1768.00,119.00 1768.00,322.00 1768.00,322.00              1768.00,322.00 1769.00,337.00 1769.00,337.00              1769.28,360.95 1774.03,389.89 1791.09,407.99              1798.82,416.18 1812.28,423.83 1823.00,427.33              1828.96,429.27 1837.74,430.92 1844.00,431.00              1871.39,431.32 1893.94,429.17 1911.51,405.00              1914.47,400.94 1918.13,393.73 1919.94,389.00              1930.47,361.46 1929.00,316.84 1929.00,287.00              1929.00,287.00 1929.00,119.00 1929.00,119.00              1929.00,119.00 2015.00,119.00 2015.00,119.00              2015.00,119.00 2015.00,333.00 2015.00,333.00              2015.00,333.00 2014.00,347.00 2014.00,347.00              2014.00,347.00 2014.00,351.00 2014.00,351.00              2014.00,351.00 2013.09,361.00 2013.09,361.00              2010.77,392.76 1999.34,431.91 1977.83,456.00              1964.87,470.52 1946.45,483.72 1928.00,490.30              1928.00,490.30 1913.00,494.42 1913.00,494.42              1896.61,498.98 1881.03,501.80 1864.00,502.00              1864.00,502.00 1849.00,502.99 1849.00,502.99              1849.00,502.99 1840.00,502.04 1840.00,502.04              1840.00,502.04 1828.00,502.04 1828.00,502.04              1828.00,502.04 1805.00,499.08 1805.00,499.08              1773.33,493.84 1748.62,484.56 1725.17,461.72              1698.15,435.40 1686.59,397.66 1683.91,361.00              1683.91,361.00 1683.00,349.00 1683.00,349.00              1683.00,349.00 1683.00,119.00 1683.00,119.00 Z            M 2108.00,119.00            C 2108.00,119.00 2254.00,119.00 2254.00,119.00              2284.62,119.00 2319.40,117.06 2349.00,124.47              2380.99,132.48 2411.06,155.64 2422.77,187.00              2427.75,200.32 2429.02,213.91 2429.00,228.00              2428.95,257.21 2418.31,281.70 2396.00,300.70              2386.35,308.92 2375.22,311.79 2370.00,317.00              2375.46,318.03 2378.34,319.91 2383.00,322.81              2397.94,332.14 2408.11,345.39 2413.65,362.00              2420.30,381.98 2420.00,403.22 2420.00,424.00              2420.00,424.00 2420.00,495.00 2420.00,495.00              2420.00,495.00 2352.00,495.00 2352.00,495.00              2347.41,495.00 2332.74,496.30 2330.17,492.57              2328.76,490.52 2329.00,486.45 2329.00,484.00              2329.00,484.00 2329.00,398.00 2329.00,398.00              2328.94,392.92 2327.95,386.89 2326.57,382.00              2316.26,345.46 2272.64,350.00 2243.00,350.00              2243.00,350.00 2221.00,350.00 2221.00,350.00              2221.00,350.00 2193.00,350.00 2193.00,350.00              2193.00,350.00 2193.00,495.00 2193.00,495.00              2193.00,495.00 2108.00,495.00 2108.00,495.00              2108.00,495.00 2108.00,119.00 2108.00,119.00 Z            M 3168.00,254.00            C 3168.00,254.00 2901.00,254.00 2901.00,254.00              2893.58,253.99 2884.81,253.21 2879.18,247.79              2871.49,240.37 2866.95,222.24 2863.31,212.00              2863.31,212.00 2839.80,154.00 2839.80,154.00              2839.80,154.00 2830.81,131.00 2830.81,131.00              2829.84,128.05 2828.52,124.17 2830.81,121.43              2833.06,118.60 2837.71,119.01 2841.00,119.00              2841.00,119.00 3117.00,119.00 3117.00,119.00              3120.19,119.01 3124.09,118.71 3126.77,120.74              3130.32,123.42 3129.80,127.12 3130.09,131.00              3130.09,131.00 3131.58,147.00 3131.58,147.00              3134.74,170.19 3138.14,193.29 3147.43,215.00              3147.43,215.00 3157.87,236.00 3157.87,236.00              3161.91,243.06 3164.89,245.82 3168.00,254.00 Z            M 3499.00,254.00            C 3502.69,244.93 3503.72,244.72 3508.13,237.00              3508.13,237.00 3519.14,215.00 3519.14,215.00              3527.87,195.25 3533.84,166.58 3535.03,145.00              3535.30,140.28 3536.25,123.44 3539.43,120.74              3541.84,118.69 3546.01,119.00 3549.00,119.00              3549.00,119.00 3826.00,119.00 3826.00,119.00              3829.20,119.01 3833.95,118.58 3836.11,121.43              3838.37,124.43 3836.56,128.92 3835.39,132.00              3835.39,132.00 3826.05,156.00 3826.05,156.00              3826.05,156.00 3803.05,215.00 3803.05,215.00              3799.26,225.12 3794.05,241.72 3785.96,248.78              3780.52,253.53 3771.94,253.99 3765.00,254.00              3765.00,254.00 3499.00,254.00 3499.00,254.00 Z            M 970.00,282.00            C 970.00,282.00 1061.00,282.00 1061.00,282.00              1072.42,281.86 1091.45,278.52 1101.00,272.24              1106.44,268.66 1110.08,264.86 1113.01,259.00              1120.57,243.88 1119.68,216.28 1108.48,203.09              1105.58,199.66 1101.94,197.32 1098.00,195.26              1080.42,186.10 1062.16,187.00 1043.00,187.00              1043.00,187.00 970.00,187.00 970.00,187.00              970.00,187.00 970.00,282.00 970.00,282.00 Z            M 2193.00,282.00            C 2193.00,282.00 2268.00,282.00 2268.00,282.00              2284.78,282.00 2304.81,282.18 2320.00,274.22              2325.19,271.50 2329.93,267.80 2333.37,263.00              2346.32,244.93 2343.45,210.06 2324.00,197.10              2308.40,186.72 2288.94,187.00 2271.00,187.00              2271.00,187.00 2193.00,187.00 2193.00,187.00              2193.00,187.00 2193.00,282.00 2193.00,282.00 Z            M 3286.00,213.00            C 3304.80,216.79 3304.52,220.21 3328.00,222.08              3328.00,222.08 3335.00,222.82 3335.00,222.82              3341.56,222.82 3358.38,219.46 3365.00,217.57              3365.00,217.57 3381.00,213.00 3381.00,213.00              3381.00,213.00 3380.00,234.00 3380.00,234.00              3380.00,234.00 3379.00,249.00 3379.00,249.00              3379.00,249.00 3378.00,282.00 3378.00,282.00              3378.00,282.00 3376.96,298.00 3376.96,298.00              3376.96,298.00 3376.96,310.00 3376.96,310.00              3376.96,310.00 3376.00,322.00 3376.00,322.00              3376.00,322.00 3376.00,335.00 3376.00,335.00              3376.00,335.00 3375.00,354.00 3375.00,354.00              3375.00,354.00 3374.00,371.00 3374.00,371.00              3374.00,371.00 3374.00,384.00 3374.00,384.00              3374.00,384.00 3372.96,397.00 3372.96,397.00              3372.96,397.00 3372.96,412.00 3372.96,412.00              3372.96,412.00 3371.96,424.00 3371.96,424.00              3371.96,424.00 3371.96,439.00 3371.96,439.00              3371.96,439.00 3370.96,451.00 3370.96,451.00              3370.96,451.00 3370.96,463.00 3370.96,463.00              3370.96,463.00 3370.00,475.00 3370.00,475.00              3370.00,475.00 3369.00,509.00 3369.00,509.00              3369.00,509.00 3368.00,523.00 3368.00,523.00              3368.00,523.00 3367.00,556.00 3367.00,556.00              3367.00,556.00 3365.96,573.00 3365.96,573.00              3365.96,573.00 3365.96,585.00 3365.96,585.00              3365.96,585.00 3365.00,597.00 3365.00,597.00              3365.00,597.00 3364.00,634.00 3364.00,634.00              3364.00,634.00 3362.96,649.00 3362.96,649.00              3362.96,649.00 3362.96,661.00 3362.96,661.00              3362.96,661.00 3362.00,673.00 3362.00,673.00              3362.00,673.00 3361.00,708.00 3361.00,708.00              3361.00,708.00 3360.00,723.00 3360.00,723.00              3360.00,723.00 3358.96,745.00 3358.96,745.00              3358.96,745.00 3358.96,761.00 3358.96,761.00              3358.96,761.00 3357.96,773.00 3357.96,773.00              3357.96,773.00 3357.96,787.00 3357.96,787.00              3357.96,787.00 3357.00,799.00 3357.00,799.00              3357.00,799.00 3356.00,829.00 3356.00,829.00              3356.00,829.00 3355.00,845.00 3355.00,845.00              3355.00,845.00 3355.00,859.00 3355.00,859.00              3355.00,859.00 3354.00,873.00 3354.00,873.00              3354.00,873.00 3353.00,905.00 3353.00,905.00              3353.00,905.00 3351.96,921.00 3351.96,921.00              3351.96,921.00 3351.96,937.00 3351.96,937.00              3351.96,937.00 3350.96,949.00 3350.96,949.00              3350.96,949.00 3350.96,962.00 3350.96,962.00              3350.96,962.00 3350.00,974.00 3350.00,974.00              3350.00,974.00 3349.00,1008.00 3349.00,1008.00              3349.00,1008.00 3348.00,1023.00 3348.00,1023.00              3348.00,1023.00 3346.00,1080.00 3346.00,1080.00              3346.00,1080.00 3345.00,1097.00 3345.00,1097.00              3345.00,1097.00 3344.00,1128.00 3344.00,1128.00              3344.00,1128.00 3343.00,1145.00 3343.00,1145.00              3343.00,1145.00 3343.00,1159.00 3343.00,1159.00              3343.00,1159.00 3342.00,1174.00 3342.00,1174.00              3342.00,1174.00 3342.00,1203.00 3342.00,1203.00              3337.42,1203.82 3329.21,1205.65 3326.31,1200.77              3324.81,1198.25 3325.00,1193.89 3325.00,1191.00              3325.00,1191.00 3324.00,1171.00 3324.00,1171.00              3324.00,1171.00 3323.00,1130.00 3323.00,1130.00              3323.00,1130.00 3322.04,1118.00 3322.04,1118.00              3322.04,1118.00 3322.04,1106.00 3322.04,1106.00              3322.04,1106.00 3321.00,1091.00 3321.00,1091.00              3321.00,1091.00 3320.00,1056.00 3320.00,1056.00              3320.00,1056.00 3319.00,1041.00 3319.00,1041.00              3319.00,1041.00 3318.00,1007.00 3318.00,1007.00              3318.00,1007.00 3316.96,992.00 3316.96,992.00              3316.96,992.00 3316.96,977.00 3316.96,977.00              3316.96,977.00 3315.96,965.00 3315.96,965.00              3315.96,965.00 3315.96,952.00 3315.96,952.00              3315.96,952.00 3315.00,940.00 3315.00,940.00              3315.00,940.00 3313.00,882.00 3313.00,882.00              3313.00,882.00 3312.00,868.00 3312.00,868.00              3312.00,868.00 3311.00,834.00 3311.00,834.00              3311.00,834.00 3310.00,817.00 3310.00,817.00              3310.00,817.00 3308.00,757.00 3308.00,757.00              3308.00,757.00 3306.96,742.00 3306.96,742.00              3306.96,742.00 3306.96,729.00 3306.96,729.00              3306.96,729.00 3306.00,717.00 3306.00,717.00              3306.00,717.00 3304.00,660.00 3304.00,660.00              3304.00,660.00 3303.00,643.00 3303.00,643.00              3303.00,643.00 3301.00,581.00 3301.00,581.00              3301.00,581.00 3300.00,567.00 3300.00,567.00              3300.00,567.00 3299.00,533.00 3299.00,533.00              3299.00,533.00 3297.96,518.00 3297.96,518.00              3297.96,518.00 3297.96,503.00 3297.96,503.00              3297.96,503.00 3296.96,491.00 3296.96,491.00              3296.96,491.00 3296.96,478.00 3296.96,478.00              3296.96,478.00 3296.00,466.00 3296.00,466.00              3296.00,466.00 3294.00,408.00 3294.00,408.00              3294.00,408.00 3293.00,393.00 3293.00,393.00              3293.00,393.00 3291.00,336.00 3291.00,336.00              3291.00,336.00 3290.00,319.00 3290.00,319.00              3290.00,319.00 3288.00,259.00 3288.00,259.00              3288.00,259.00 3287.04,247.00 3287.04,247.00              3287.04,247.00 3287.04,233.00 3287.04,233.00              3287.04,233.00 3286.00,213.00 3286.00,213.00 Z            M 3270.00,355.00            C 3270.00,355.00 3252.00,354.00 3252.00,354.00              3252.00,354.00 3143.00,354.00 3143.00,354.00              3143.00,354.00 3057.00,354.00 3057.00,354.00              3057.00,354.00 2998.00,354.00 2998.00,354.00              2981.03,353.92 2979.24,343.50 2973.80,330.00              2973.80,330.00 2962.80,303.00 2962.80,303.00              2960.85,298.11 2955.19,286.80 2956.33,282.04              2957.65,276.51 2963.56,277.01 2968.00,277.00              2968.00,277.00 3173.00,277.00 3173.00,277.00              3186.42,277.02 3186.61,281.38 3196.00,289.83              3200.43,293.82 3209.95,301.02 3215.00,304.31              3225.48,311.13 3238.14,317.34 3250.00,321.33              3253.01,322.35 3266.70,326.05 3268.01,327.72              3269.36,329.47 3268.94,333.79 3269.04,336.00              3269.04,336.00 3270.00,355.00 3270.00,355.00 Z            M 3397.08,355.00            C 3397.08,355.00 3397.08,335.00 3397.08,335.00              3397.34,333.20 3397.86,329.10 3398.98,327.72              3400.58,325.76 3412.66,323.16 3416.00,321.95              3428.62,317.36 3440.80,311.42 3452.00,304.00              3459.00,299.36 3465.68,294.23 3472.00,288.72              3480.65,281.17 3482.04,277.02 3494.00,277.00              3494.00,277.00 3699.00,277.00 3699.00,277.00              3703.33,277.01 3709.34,276.51 3710.48,282.04              3711.31,286.10 3705.54,298.66 3703.80,303.00              3703.80,303.00 3691.60,333.00 3691.60,333.00              3686.85,344.68 3684.85,353.82 3670.00,354.00              3670.00,354.00 3610.00,354.00 3610.00,354.00              3610.00,354.00 3524.00,354.00 3524.00,354.00              3524.00,354.00 3412.00,354.00 3412.00,354.00              3412.00,354.00 3397.08,355.00 3397.08,355.00 Z            M 3274.00,456.00            C 3274.00,456.00 3275.00,485.00 3275.00,485.00              3274.99,487.53 3275.34,491.36 3273.40,493.26              3271.29,495.32 3266.77,495.00 3264.00,495.00              3264.00,495.00 3117.00,495.00 3117.00,495.00              3114.13,495.00 3110.63,495.21 3108.04,493.83              3102.96,491.12 3099.63,477.62 3097.40,472.00              3096.09,468.70 3092.34,460.71 3094.26,457.43              3095.96,454.53 3101.10,455.00 3104.00,455.00              3104.00,455.00 3154.00,455.00 3154.00,455.00              3154.00,455.00 3203.00,455.00 3203.00,455.00              3203.00,455.00 3246.00,455.00 3246.00,455.00              3255.31,455.00 3264.81,454.35 3274.00,456.00 Z            M 3396.21,456.74            C 3401.28,455.41 3409.52,456.00 3415.00,456.00              3415.00,456.00 3450.00,456.00 3450.00,456.00              3450.00,456.00 3564.00,456.00 3564.00,456.00              3566.46,456.00 3571.34,455.63 3573.00,457.74              3575.29,460.65 3571.59,467.94 3570.42,471.00              3568.29,476.60 3563.68,490.81 3558.68,493.71              3556.11,495.20 3551.92,495.00 3549.00,495.00              3549.00,495.00 3403.00,495.00 3403.00,495.00              3399.63,494.99 3395.15,495.41 3392.74,492.57              3390.23,489.62 3391.31,485.44 3391.72,482.00              3392.60,474.51 3389.35,461.42 3396.21,456.74 Z            M 3067.01,460.17            C 3068.94,460.47 3068.97,460.04 3070.79,461.47              3074.56,464.44 3080.08,480.75 3082.20,486.00              3082.20,486.00 3099.55,528.00 3099.55,528.00              3099.55,528.00 3105.06,544.00 3105.06,544.00              3105.06,544.00 3113.60,565.00 3113.60,565.00              3113.60,565.00 3180.40,728.00 3180.40,728.00              3180.40,728.00 3189.60,753.00 3189.60,753.00              3189.60,753.00 3211.43,807.00 3211.43,807.00              3214.04,813.13 3221.77,829.29 3222.45,835.00              3223.20,841.42 3217.09,856.93 3214.22,863.00              3211.27,869.24 3206.71,878.42 3202.91,884.00              3198.09,891.06 3182.75,906.33 3175.00,909.82              3169.34,912.37 3163.13,912.99 3157.00,913.00              3157.00,913.00 2978.00,913.00 2978.00,913.00              2971.49,912.99 2965.00,912.22 2959.00,909.48              2942.31,901.87 2927.07,877.50 2920.00,861.00              2917.33,854.77 2911.78,841.57 2912.55,835.00              2913.19,829.57 2920.60,813.79 2923.14,808.00              2923.14,808.00 2933.20,783.00 2933.20,783.00              2933.20,783.00 2941.77,762.00 2941.77,762.00              2941.77,762.00 2946.42,748.00 2946.42,748.00              2946.42,748.00 2963.40,707.00 2963.40,707.00              2963.40,707.00 2997.01,624.00 2997.01,624.00              2997.01,624.00 3021.39,565.00 3021.39,565.00              3021.39,565.00 3026.45,550.00 3026.45,550.00              3026.45,550.00 3051.95,488.00 3051.95,488.00              3053.97,482.61 3059.98,465.67 3063.39,462.24              3065.06,460.56 3065.08,460.92 3067.01,460.17 Z            M 3596.33,461.03            C 3598.45,460.31 3599.58,459.76 3601.79,461.03              3605.91,463.38 3610.20,477.16 3612.28,482.00              3612.28,482.00 3643.80,559.00 3643.80,559.00              3643.80,559.00 3658.19,594.00 3658.19,594.00              3658.19,594.00 3663.42,609.00 3663.42,609.00              3663.42,609.00 3676.60,642.00 3676.60,642.00              3676.60,642.00 3719.20,746.00 3719.20,746.00              3719.20,746.00 3737.19,790.00 3737.19,790.00              3737.19,790.00 3742.31,805.00 3742.31,805.00              3745.30,812.47 3752.56,826.80 3753.67,834.00              3754.96,842.28 3749.21,855.43 3745.86,863.00              3743.39,868.59 3738.62,879.11 3735.45,884.00              3732.40,888.71 3728.93,892.07 3725.00,896.00              3713.27,907.73 3704.90,912.97 3688.00,913.00              3688.00,913.00 3511.00,913.00 3511.00,913.00              3480.61,912.95 3462.40,886.31 3451.58,861.00              3448.82,854.55 3443.36,841.87 3444.34,835.00              3445.24,828.65 3453.89,810.21 3456.80,803.00              3456.80,803.00 3483.58,737.00 3483.58,737.00              3483.58,737.00 3497.94,702.00 3497.94,702.00              3497.94,702.00 3504.20,684.00 3504.20,684.00              3504.20,684.00 3525.40,632.00 3525.40,632.00              3525.40,632.00 3556.72,556.00 3556.72,556.00              3556.72,556.00 3568.01,528.00 3568.01,528.00              3568.01,528.00 3582.31,492.00 3582.31,492.00              3585.15,484.03 3590.40,466.19 3596.33,461.03 Z            M 3069.00,495.00            C 3069.00,495.00 3067.00,495.00 3067.00,495.00              3067.00,495.00 3055.42,522.00 3055.42,522.00              3055.42,522.00 3029.01,586.00 3029.01,586.00              3029.01,586.00 3019.40,612.00 3019.40,612.00              3019.40,612.00 2983.99,698.00 2983.99,698.00              2983.99,698.00 2946.61,789.00 2946.61,789.00              2946.61,789.00 2941.58,804.00 2941.58,804.00              2941.58,804.00 2932.00,829.00 2932.00,829.00              2932.00,829.00 3203.00,829.00 3203.00,829.00              3203.00,829.00 3187.81,790.00 3187.81,790.00              3187.81,790.00 3181.80,773.00 3181.80,773.00              3181.80,773.00 3157.01,713.00 3157.01,713.00              3157.01,713.00 3126.99,639.00 3126.99,639.00              3126.99,639.00 3106.20,589.00 3106.20,589.00              3106.20,589.00 3101.08,574.00 3101.08,574.00              3101.08,574.00 3096.60,564.00 3096.60,564.00              3096.60,564.00 3078.40,519.00 3078.40,519.00              3078.40,519.00 3069.00,495.00 3069.00,495.00 Z            M 3601.00,495.00            C 3601.00,495.00 3599.00,495.00 3599.00,495.00              3590.66,508.46 3583.71,531.78 3577.94,547.00              3577.94,547.00 3549.40,616.00 3549.40,616.00              3549.40,616.00 3508.60,715.00 3508.60,715.00              3508.60,715.00 3492.40,757.00 3492.40,757.00              3492.40,757.00 3472.40,806.00 3472.40,806.00              3472.40,806.00 3463.00,829.00 3463.00,829.00              3463.00,829.00 3736.00,829.00 3736.00,829.00              3736.00,829.00 3725.20,802.00 3725.20,802.00              3725.20,802.00 3696.01,731.00 3696.01,731.00              3696.01,731.00 3674.99,679.00 3674.99,679.00              3674.99,679.00 3662.45,649.00 3662.45,649.00              3662.45,649.00 3658.77,638.00 3658.77,638.00              3658.77,638.00 3642.58,598.00 3642.58,598.00              3642.58,598.00 3619.15,541.00 3619.15,541.00              3619.15,541.00 3601.00,495.00 3601.00,495.00 Z            M 4.00,912.00            C 4.00,912.00 4.00,735.00 4.00,735.00              4.00,735.00 4.00,699.00 4.00,699.00              4.00,695.69 3.46,686.92 5.17,684.43              7.17,681.53 11.88,682.01 15.00,682.00              15.00,682.00 50.00,682.00 50.00,682.00              50.00,682.00 77.00,682.00 77.00,682.00              112.27,682.00 156.87,678.26 179.96,711.00              184.34,717.21 185.68,720.95 188.00,728.00              191.05,737.28 191.11,742.43 191.00,752.00              190.92,758.40 189.25,767.91 187.25,774.00              185.64,778.91 182.72,784.63 179.95,789.00              159.98,820.45 118.33,817.00 86.00,817.00              86.00,817.00 50.00,817.00 50.00,817.00              46.09,817.00 37.23,816.44 34.06,818.17              29.61,820.61 30.01,824.63 30.00,829.00              30.00,829.00 30.00,912.00 30.00,912.00              30.00,912.00 4.00,912.00 4.00,912.00 Z            M 268.00,682.00            C 268.00,682.00 351.00,682.00 351.00,682.00              374.23,682.00 396.21,681.20 418.00,690.86              443.83,702.31 451.31,722.54 451.00,749.00              450.87,759.59 446.98,771.47 440.71,780.00              430.90,793.36 422.77,792.76 410.00,800.00              414.27,800.97 418.19,802.25 422.00,804.46              426.88,807.29 432.07,811.40 435.37,816.00              447.82,833.38 445.00,867.11 445.00,888.00              445.00,888.00 445.00,912.00 445.00,912.00              445.00,912.00 418.00,912.00 418.00,912.00              418.00,912.00 418.00,856.00 418.00,856.00              417.98,846.22 416.18,835.12 410.37,827.00              402.50,816.02 390.17,811.16 377.00,811.00              377.00,811.00 294.00,811.00 294.00,811.00              294.00,811.00 294.00,912.00 294.00,912.00              294.00,912.00 268.00,912.00 268.00,912.00              268.00,912.00 268.00,682.00 268.00,682.00 Z            M 539.00,682.00            C 539.00,682.00 564.00,682.00 564.00,682.00              564.00,682.00 564.00,912.00 564.00,912.00              564.00,912.00 539.00,912.00 539.00,912.00              539.00,912.00 539.00,682.00 539.00,682.00 Z            M 633.00,682.00            C 633.00,682.00 652.00,682.00 652.00,682.00              663.78,682.06 663.75,688.09 668.00,698.00              668.00,698.00 686.42,739.00 686.42,739.00              686.42,739.00 710.15,793.00 710.15,793.00              710.15,793.00 716.87,810.00 716.87,810.00              716.87,810.00 731.57,843.00 731.57,843.00              731.57,843.00 750.00,887.00 750.00,887.00              750.00,887.00 765.42,850.00 765.42,850.00              765.42,850.00 786.58,802.00 786.58,802.00              786.58,802.00 797.43,775.00 797.43,775.00              797.43,775.00 815.69,735.00 815.69,735.00              815.69,735.00 832.72,697.00 832.72,697.00              836.50,688.23 837.21,682.15 848.00,682.00              848.00,682.00 867.00,682.00 867.00,682.00              865.08,690.41 859.56,701.00 855.78,709.00              855.78,709.00 838.31,747.00 838.31,747.00              838.31,747.00 812.69,804.00 812.69,804.00              812.69,804.00 800.31,830.00 800.31,830.00              800.31,830.00 787.75,860.00 787.75,860.00              787.75,860.00 770.58,897.00 770.58,897.00              766.95,905.49 766.43,911.85 756.00,912.00              756.00,912.00 743.00,912.00 743.00,912.00              732.34,911.85 731.37,905.69 727.58,897.00              727.58,897.00 710.20,857.00 710.20,857.00              710.20,857.00 691.86,816.00 691.86,816.00              691.86,816.00 659.69,744.00 659.69,744.00              650.33,723.56 640.11,703.34 633.00,682.00 Z            M 880.00,912.00            C 880.00,912.00 905.58,854.00 905.58,854.00              905.58,854.00 947.14,760.00 947.14,760.00              947.14,760.00 956.86,736.00 956.86,736.00              956.86,736.00 973.72,698.00 973.72,698.00              975.52,693.84 978.18,685.37 982.11,683.17              985.41,681.33 998.60,681.95 1003.00,682.00              1015.70,682.16 1015.40,688.98 1019.86,699.00              1019.86,699.00 1035.72,735.00 1035.72,735.00              1035.72,735.00 1053.69,774.00 1053.69,774.00              1053.69,774.00 1091.86,858.00 1091.86,858.00              1098.64,873.21 1111.46,896.47 1115.00,912.00              1115.00,912.00 1098.00,912.00 1098.00,912.00              1095.20,912.00 1091.61,912.21 1089.10,910.83              1084.58,908.32 1080.88,897.77 1078.69,893.00              1078.69,893.00 1061.31,856.00 1061.31,856.00              1056.04,844.53 1056.16,838.02 1042.00,838.00              1042.00,838.00 952.00,838.00 952.00,838.00              948.06,838.01 944.42,837.67 941.21,840.43              937.91,843.27 934.59,852.67 932.72,857.00              932.72,857.00 916.30,894.00 916.30,894.00              909.50,909.10 910.48,911.94 899.00,912.00              899.00,912.00 880.00,912.00 880.00,912.00 Z            M 1119.00,682.00            C 1119.00,682.00 1325.00,682.00 1325.00,682.00              1325.00,682.00 1325.00,705.00 1325.00,705.00              1325.00,705.00 1236.00,705.00 1236.00,705.00              1236.00,705.00 1236.00,912.00 1236.00,912.00              1236.00,912.00 1209.00,912.00 1209.00,912.00              1209.00,912.00 1209.00,705.00 1209.00,705.00              1209.00,705.00 1119.00,705.00 1119.00,705.00              1119.00,705.00 1119.00,682.00 1119.00,682.00 Z            M 1392.00,682.00            C 1392.00,682.00 1429.00,682.00 1429.00,682.00              1429.00,682.00 1457.00,682.00 1457.00,682.00              1457.00,682.00 1477.00,682.00 1477.00,682.00              1510.23,682.00 1557.73,681.49 1569.56,721.00              1571.36,727.02 1571.99,731.75 1572.00,738.00              1572.00,738.00 1572.00,742.00 1572.00,742.00              1571.93,756.89 1565.26,771.43 1553.00,780.21              1547.67,784.03 1540.34,785.86 1536.00,790.00              1542.44,791.00 1546.27,792.85 1552.00,795.76              1560.86,800.25 1569.22,806.43 1574.53,815.00              1585.36,832.46 1584.06,862.63 1573.54,880.00              1568.91,887.64 1563.47,892.75 1556.00,897.56              1531.24,913.50 1508.84,912.00 1481.00,912.00              1481.00,912.00 1392.00,912.00 1392.00,912.00              1392.00,912.00 1392.00,682.00 1392.00,682.00 Z            M 1637.00,912.00            C 1638.73,904.65 1642.56,897.82 1645.69,891.00              1645.69,891.00 1661.15,856.00 1661.15,856.00              1661.15,856.00 1679.42,812.00 1679.42,812.00              1679.42,812.00 1689.14,791.00 1689.14,791.00              1689.14,791.00 1714.14,734.00 1714.14,734.00              1714.14,734.00 1730.70,697.00 1730.70,697.00              1734.69,688.12 1734.54,682.16 1746.00,682.00              1746.00,682.00 1759.00,682.00 1759.00,682.00              1770.02,682.15 1770.30,688.28 1774.31,697.00              1774.31,697.00 1792.86,737.00 1792.86,737.00              1792.86,737.00 1824.69,806.00 1824.69,806.00              1824.69,806.00 1835.43,832.00 1835.43,832.00              1835.43,832.00 1846.31,856.00 1846.31,856.00              1846.31,856.00 1872.00,912.00 1872.00,912.00              1872.00,912.00 1853.00,912.00 1853.00,912.00              1850.30,912.00 1846.58,912.22 1844.21,910.83              1840.39,908.57 1836.63,898.22 1834.69,894.00              1834.69,894.00 1818.31,857.00 1818.31,857.00              1815.65,851.19 1813.14,841.63 1806.96,839.01              1804.23,837.84 1800.92,838.00 1798.00,838.00              1798.00,838.00 1707.00,838.00 1707.00,838.00              1701.79,838.01 1699.10,837.73 1695.39,842.06              1692.46,845.47 1688.70,855.40 1686.72,860.00              1686.72,860.00 1672.42,893.00 1672.42,893.00              1671.02,896.73 1667.34,909.03 1664.50,910.98              1662.68,912.23 1659.17,912.00 1657.00,912.00              1657.00,912.00 1637.00,912.00 1637.00,912.00 Z            M 1940.00,682.00            C 1946.88,682.00 1965.65,680.99 1971.00,683.57              1976.38,686.17 1981.02,694.14 1984.63,699.00              1984.63,699.00 2012.21,736.00 2012.21,736.00              2012.21,736.00 2090.12,838.00 2090.12,838.00              2090.12,838.00 2120.00,880.00 2120.00,880.00              2120.00,880.00 2119.00,863.00 2119.00,863.00              2119.00,863.00 2119.00,824.00 2119.00,824.00              2119.00,824.00 2118.00,807.00 2118.00,807.00              2118.00,807.00 2118.00,729.00 2118.00,729.00              2118.00,729.00 2118.00,696.00 2118.00,696.00              2118.04,693.02 2118.29,685.97 2120.59,683.93              2122.98,681.82 2128.93,682.00 2132.00,682.00              2132.00,682.00 2143.00,682.00 2143.00,682.00              2143.00,682.00 2143.00,912.00 2143.00,912.00              2143.00,912.00 2122.00,912.00 2122.00,912.00              2109.10,911.98 2107.49,905.53 2100.00,896.00              2100.00,896.00 2066.28,851.00 2066.28,851.00              2066.28,851.00 2009.88,776.00 2009.88,776.00              2009.88,776.00 1963.00,711.00 1963.00,711.00              1963.00,711.00 1964.00,724.00 1964.00,724.00              1964.00,724.00 1964.00,743.00 1964.00,743.00              1964.00,743.00 1965.00,760.00 1965.00,760.00              1965.00,760.00 1965.00,912.00 1965.00,912.00              1965.00,912.00 1940.00,912.00 1940.00,912.00              1940.00,912.00 1940.00,682.00 1940.00,682.00 Z            M 2240.00,682.00            C 2240.00,682.00 2266.00,682.00 2266.00,682.00              2266.00,682.00 2266.00,799.00 2266.00,799.00              2266.00,799.00 2292.00,776.92 2292.00,776.92              2292.00,776.92 2373.00,711.57 2373.00,711.57              2373.00,711.57 2395.00,692.73 2395.00,692.73              2395.00,692.73 2408.00,683.14 2408.00,683.14              2408.00,683.14 2418.00,682.00 2418.00,682.00              2418.00,682.00 2443.00,682.00 2443.00,682.00              2437.03,690.32 2422.40,700.54 2414.00,707.42              2414.00,707.42 2358.00,753.42 2358.00,753.42              2358.00,753.42 2336.00,771.58 2336.00,771.58              2333.67,773.49 2328.34,777.18 2327.59,780.04              2326.62,783.74 2331.13,787.87 2333.44,790.28              2333.44,790.28 2357.00,814.00 2357.00,814.00              2357.00,814.00 2373.91,831.00 2373.91,831.00              2373.91,831.00 2399.09,859.00 2399.09,859.00              2399.09,859.00 2421.42,881.83 2421.42,881.83              2430.77,891.57 2442.74,900.57 2450.00,912.00              2450.00,912.00 2424.00,912.00 2424.00,912.00              2421.55,912.00 2418.28,912.13 2416.00,911.26              2412.50,909.93 2408.67,905.67 2406.00,903.00              2406.00,903.00 2391.04,888.00 2391.04,888.00              2391.04,888.00 2371.91,867.00 2371.91,867.00              2371.91,867.00 2331.91,825.00 2331.91,825.00              2323.90,816.40 2310.64,806.24 2306.00,796.00              2306.00,796.00 2287.00,809.29 2287.00,809.29              2281.59,813.16 2269.16,821.08 2266.89,827.00              2265.87,829.66 2266.00,833.17 2266.00,836.00              2266.00,836.00 2266.00,912.00 2266.00,912.00              2266.00,912.00 2240.00,912.00 2240.00,912.00              2240.00,912.00 2240.00,682.00 2240.00,682.00 Z            M 996.00,704.00            C 996.00,704.00 976.99,748.00 976.99,748.00              976.99,748.00 950.00,814.00 950.00,814.00              950.00,814.00 1044.00,814.00 1044.00,814.00              1044.00,814.00 1012.85,741.00 1012.85,741.00              1012.85,741.00 996.00,704.00 996.00,704.00 Z            M 1752.00,704.00            C 1752.00,704.00 1744.99,720.00 1744.99,720.00              1744.99,720.00 1733.99,746.00 1733.99,746.00              1733.99,746.00 1706.00,814.00 1706.00,814.00              1706.00,814.00 1801.00,814.00 1801.00,814.00              1801.00,814.00 1763.31,731.00 1763.31,731.00              1763.31,731.00 1752.00,704.00 1752.00,704.00 Z            M 30.00,795.00            C 30.00,795.00 100.00,795.00 100.00,795.00              114.60,795.00 131.82,795.38 145.00,788.10              170.01,774.27 170.70,728.26 146.00,713.88              131.31,705.31 114.47,705.00 98.00,705.00              98.00,705.00 59.00,705.00 59.00,705.00              59.00,705.00 39.00,705.00 39.00,705.00              36.64,705.04 33.54,704.94 31.74,706.74              29.65,708.82 30.00,713.24 30.00,716.00              30.00,716.00 30.00,795.00 30.00,795.00 Z            M 294.00,788.00            C 294.00,788.00 321.00,788.00 321.00,788.00              321.00,788.00 342.00,788.00 342.00,788.00              368.80,788.00 413.65,793.22 422.33,759.00              423.80,753.21 424.06,749.91 424.00,744.00              423.76,722.92 410.76,711.30 391.00,707.01              378.17,704.23 365.04,705.00 352.00,705.00              352.00,705.00 294.00,705.00 294.00,705.00              294.00,705.00 294.00,788.00 294.00,788.00 Z            M 1418.00,779.00            C 1418.00,779.00 1475.00,779.00 1475.00,779.00              1487.99,779.00 1501.25,779.72 1514.00,776.77              1531.45,772.72 1544.55,762.07 1544.99,743.00              1545.60,716.48 1525.04,705.11 1501.00,705.00              1501.00,705.00 1418.00,705.00 1418.00,705.00              1418.00,705.00 1418.00,779.00 1418.00,779.00 Z            M 1418.00,891.00            C 1418.00,891.00 1497.00,891.00 1497.00,891.00              1509.87,890.85 1526.16,888.11 1537.00,880.90              1543.76,876.40 1548.59,870.54 1551.54,863.00              1558.22,845.91 1553.14,820.33 1536.00,811.26              1515.42,800.38 1497.40,801.00 1475.00,801.00              1475.00,801.00 1418.00,801.00 1418.00,801.00              1418.00,801.00 1418.00,891.00 1418.00,891.00 Z"
     style="fill:#7d8286;stroke:none;fill-opacity:1" />
</svg>
